<svg xmlns="http://www.w3.org/2000/svg" xmlns:xlink="http://www.w3.org/1999/xlink" aria-hidden="true" focusable="false" width="1em" height="1em" style="-ms-transform: rotate(360deg); -webkit-transform: rotate(360deg); transform: rotate(360deg);" preserveAspectRatio="xMidYMid meet" viewBox="0 0 512 512"><path fill="white" d="M48 48h128V16H16v160h32V48z"/><path fill="white" d="M176 176V80H80v96h96zm-64-64h32v32h-32z"/><path fill="white" d="M328 48h136v128h32V16H328v32z"/><path fill="white" d="M432 176V80h-96v96h96zm-64-64h32v32h-32z"/><path fill="white" d="M176 464H48V336H16v160h160v-32z"/><path fill="white" d="M176 336H80v96h96v-96zm-32 64h-32v-32h32z"/><path fill="white" d="M464 464H328v32h168V336h-32v128z"/><path fill="white" d="M272 304h128v64h32v-96H272v32z"/><path fill="white" d="M432 432v-32H240V272H80v32h128v128h224z"/><path fill="white" d="M208 80h32v96h-32z"/><path fill="white" d="M80 240h224V80h-32v128H80v32z"/><path fill="white" d="M336 208h96v32h-96z"/><path fill="white" d="M336 336h32v32h-32z"/><path fill="white" d="M272 336h32v32h-32z"/></svg>
